<svg xmlns="http://www.w3.org/2000/svg" width="1680" height="696" viewBox="0 0 1680 696">
<defs>
<marker id="arrow" markerWidth="10" markerHeight="10" refX="8" refY="3" orient="auto" markerUnits="strokeWidth">
<path d="M0,0 L0,6 L9,3 z" fill="#687383"/>
</marker>
</defs>
<rect width="1680" height="696" fill="#f6f4ef"/>
<rect x="20" y="20" width="1640" height="656" rx="20" fill="#fffdf8" stroke="#d7d1c6"/>
<text x="44" y="62" font-size="34" font-weight="800" fill="#0f5148">品牌设计全流程 SOP 泳道图</text>
<text x="44" y="92" font-size="16" fill="#687383">从需求进入到资产沉淀，明确业务、品牌、AI、设计和数据各自负责的动作</text>
<rect x="32" y="104" width="1616" height="108" fill="#fbfaf6"/>
<line x1="32" y1="104" x2="1648" y2="104" stroke="#d7d1c6" stroke-width="1"/>
<rect x="44" y="124" width="156" height="68" rx="10" fill="#f4e8c8" stroke="#c99a3e" stroke-width="1.5"/>
<text x="122.0" y="163.0" text-anchor="middle" font-size="18" font-weight="700" fill="#1f2933">需求方</text>
<rect x="224" y="127" width="132" height="62" rx="10" fill="#fff7df" stroke="#c99a3e" stroke-width="1.5"/>
<text x="290.0" y="163.0" text-anchor="middle" font-size="15" font-weight="600" fill="#1f2933">需求进入</text>
<rect x="384" y="127" width="132" height="62" rx="10" fill="#fff7df" stroke="#c99a3e" stroke-width="1.5"/>
<text x="450.0" y="163.0" text-anchor="middle" font-size="15" font-weight="600" fill="#1f2933">资料提供</text>
<path d="M356 158.0 C 370.0 158.0, 370.0 158.0, 384 158.0" fill="none" stroke="#687383" stroke-width="2" marker-end="url(#arrow)"/>
<rect x="544" y="127" width="132" height="62" rx="10" fill="#fff7df" stroke="#c99a3e" stroke-width="1.5"/>
<text x="610.0" y="163.0" text-anchor="middle" font-size="15" font-weight="600" fill="#1f2933">目标确认</text>
<path d="M516 158.0 C 530.0 158.0, 530.0 158.0, 544 158.0" fill="none" stroke="#687383" stroke-width="2" marker-end="url(#arrow)"/>
<rect x="704" y="127" width="132" height="62" rx="10" fill="#fff7df" stroke="#c99a3e" stroke-width="1.5"/>
<text x="770.0" y="163.0" text-anchor="middle" font-size="15" font-weight="600" fill="#1f2933">上线接收</text>
<path d="M676 158.0 C 690.0 158.0, 690.0 158.0, 704 158.0" fill="none" stroke="#687383" stroke-width="2" marker-end="url(#arrow)"/>
<rect x="864" y="127" width="132" height="62" rx="10" fill="#fff7df" stroke="#c99a3e" stroke-width="1.5"/>
<text x="930.0" y="163.0" text-anchor="middle" font-size="15" font-weight="600" fill="#1f2933">结果反馈</text>
<path d="M836 158.0 C 850.0 158.0, 850.0 158.0, 864 158.0" fill="none" stroke="#687383" stroke-width="2" marker-end="url(#arrow)"/>
<rect x="32" y="212" width="1616" height="108" fill="#f1ede4"/>
<line x1="32" y1="212" x2="1648" y2="212" stroke="#d7d1c6" stroke-width="1"/>
<rect x="44" y="232" width="156" height="68" rx="10" fill="#dcefe8" stroke="#146c5c" stroke-width="1.5"/>
<text x="122.0" y="271.0" text-anchor="middle" font-size="18" font-weight="700" fill="#1f2933">品牌负责人</text>
<rect x="384" y="235" width="132" height="62" rx="10" fill="#eef7f2" stroke="#146c5c" stroke-width="1.5"/>
<text x="450.0" y="271.0" text-anchor="middle" font-size="15" font-weight="600" fill="#1f2933">品牌语义</text>
<rect x="544" y="235" width="132" height="62" rx="10" fill="#eef7f2" stroke="#146c5c" stroke-width="1.5"/>
<text x="610.0" y="271.0" text-anchor="middle" font-size="15" font-weight="600" fill="#1f2933">策略审核</text>
<path d="M516 266.0 C 530.0 266.0, 530.0 266.0, 544 266.0" fill="none" stroke="#687383" stroke-width="2" marker-end="url(#arrow)"/>
<rect x="704" y="235" width="132" height="62" rx="10" fill="#eef7f2" stroke="#146c5c" stroke-width="1.5"/>
<text x="770.0" y="271.0" text-anchor="middle" font-size="15" font-weight="600" fill="#1f2933">终稿确认</text>
<path d="M676 266.0 C 690.0 266.0, 690.0 266.0, 704 266.0" fill="none" stroke="#687383" stroke-width="2" marker-end="url(#arrow)"/>
<rect x="864" y="235" width="132" height="62" rx="10" fill="#eef7f2" stroke="#146c5c" stroke-width="1.5"/>
<text x="930.0" y="271.0" text-anchor="middle" font-size="15" font-weight="600" fill="#1f2933">资产归档</text>
<path d="M836 266.0 C 850.0 266.0, 850.0 266.0, 864 266.0" fill="none" stroke="#687383" stroke-width="2" marker-end="url(#arrow)"/>
<rect x="32" y="320" width="1616" height="108" fill="#fbfaf6"/>
<line x1="32" y1="320" x2="1648" y2="320" stroke="#d7d1c6" stroke-width="1"/>
<rect x="44" y="340" width="156" height="68" rx="10" fill="#e4e0f0" stroke="#7566a5" stroke-width="1.5"/>
<text x="122.0" y="379.0" text-anchor="middle" font-size="18" font-weight="700" fill="#1f2933">Codex/AI</text>
<rect x="224" y="343" width="132" height="62" rx="10" fill="#f0edf8" stroke="#7566a5" stroke-width="1.5"/>
<text x="290.0" y="379.0" text-anchor="middle" font-size="15" font-weight="600" fill="#1f2933">任务归类</text>
<rect x="384" y="343" width="132" height="62" rx="10" fill="#f0edf8" stroke="#7566a5" stroke-width="1.5"/>
<text x="450.0" y="379.0" text-anchor="middle" font-size="15" font-weight="600" fill="#1f2933">资料检查</text>
<path d="M356 374.0 C 370.0 374.0, 370.0 374.0, 384 374.0" fill="none" stroke="#687383" stroke-width="2" marker-end="url(#arrow)"/>
<rect x="544" y="343" width="132" height="62" rx="10" fill="#f0edf8" stroke="#7566a5" stroke-width="1.5"/>
<text x="610.0" y="379.0" text-anchor="middle" font-size="15" font-weight="600" fill="#1f2933">AI方向探索</text>
<path d="M516 374.0 C 530.0 374.0, 530.0 374.0, 544 374.0" fill="none" stroke="#687383" stroke-width="2" marker-end="url(#arrow)"/>
<rect x="704" y="343" width="132" height="62" rx="10" fill="#f0edf8" stroke="#7566a5" stroke-width="1.5"/>
<text x="770.0" y="379.0" text-anchor="middle" font-size="15" font-weight="600" fill="#1f2933">审核清单</text>
<path d="M676 374.0 C 690.0 374.0, 690.0 374.0, 704 374.0" fill="none" stroke="#687383" stroke-width="2" marker-end="url(#arrow)"/>
<rect x="864" y="343" width="132" height="62" rx="10" fill="#f0edf8" stroke="#7566a5" stroke-width="1.5"/>
<text x="930.0" y="379.0" text-anchor="middle" font-size="15" font-weight="600" fill="#1f2933">复盘建议</text>
<path d="M836 374.0 C 850.0 374.0, 850.0 374.0, 864 374.0" fill="none" stroke="#687383" stroke-width="2" marker-end="url(#arrow)"/>
<rect x="32" y="428" width="1616" height="108" fill="#f1ede4"/>
<line x1="32" y1="428" x2="1648" y2="428" stroke="#d7d1c6" stroke-width="1"/>
<rect x="44" y="448" width="156" height="68" rx="10" fill="#dce9ef" stroke="#4f7f9f" stroke-width="1.5"/>
<text x="122.0" y="487.0" text-anchor="middle" font-size="18" font-weight="700" fill="#1f2933">设计部</text>
<rect x="384" y="451" width="132" height="62" rx="10" fill="#eef6fa" stroke="#4f7f9f" stroke-width="1.5"/>
<text x="450.0" y="487.0" text-anchor="middle" font-size="15" font-weight="600" fill="#1f2933">设计 brief</text>
<rect x="544" y="451" width="132" height="62" rx="10" fill="#eef6fa" stroke="#4f7f9f" stroke-width="1.5"/>
<text x="610.0" y="487.0" text-anchor="middle" font-size="15" font-weight="600" fill="#1f2933">设计深化</text>
<path d="M516 482.0 C 530.0 482.0, 530.0 482.0, 544 482.0" fill="none" stroke="#687383" stroke-width="2" marker-end="url(#arrow)"/>
<rect x="704" y="451" width="132" height="62" rx="10" fill="#eef6fa" stroke="#4f7f9f" stroke-width="1.5"/>
<text x="770.0" y="487.0" text-anchor="middle" font-size="15" font-weight="600" fill="#1f2933">上线交付</text>
<path d="M676 482.0 C 690.0 482.0, 690.0 482.0, 704 482.0" fill="none" stroke="#687383" stroke-width="2" marker-end="url(#arrow)"/>
<rect x="864" y="451" width="132" height="62" rx="10" fill="#eef6fa" stroke="#4f7f9f" stroke-width="1.5"/>
<text x="930.0" y="487.0" text-anchor="middle" font-size="15" font-weight="600" fill="#1f2933">模板沉淀</text>
<path d="M836 482.0 C 850.0 482.0, 850.0 482.0, 864 482.0" fill="none" stroke="#687383" stroke-width="2" marker-end="url(#arrow)"/>
<rect x="32" y="536" width="1616" height="108" fill="#fbfaf6"/>
<line x1="32" y1="536" x2="1648" y2="536" stroke="#d7d1c6" stroke-width="1"/>
<rect x="44" y="556" width="156" height="68" rx="10" fill="#f1d9cf" stroke="#b46a55" stroke-width="1.5"/>
<text x="122.0" y="595.0" text-anchor="middle" font-size="18" font-weight="700" fill="#1f2933">数据/渠道</text>
<rect x="384" y="559" width="132" height="62" rx="10" fill="#fbefeb" stroke="#b46a55" stroke-width="1.5"/>
<text x="450.0" y="595.0" text-anchor="middle" font-size="15" font-weight="600" fill="#1f2933">渠道规则</text>
<rect x="544" y="559" width="132" height="62" rx="10" fill="#fbefeb" stroke="#b46a55" stroke-width="1.5"/>
<text x="610.0" y="595.0" text-anchor="middle" font-size="15" font-weight="600" fill="#1f2933">上线排期</text>
<path d="M516 590.0 C 530.0 590.0, 530.0 590.0, 544 590.0" fill="none" stroke="#687383" stroke-width="2" marker-end="url(#arrow)"/>
<rect x="704" y="559" width="132" height="62" rx="10" fill="#fbefeb" stroke="#b46a55" stroke-width="1.5"/>
<text x="770.0" y="595.0" text-anchor="middle" font-size="15" font-weight="600" fill="#1f2933">数据复盘</text>
<path d="M676 590.0 C 690.0 590.0, 690.0 590.0, 704 590.0" fill="none" stroke="#687383" stroke-width="2" marker-end="url(#arrow)"/>
<rect x="864" y="559" width="132" height="62" rx="10" fill="#fbefeb" stroke="#b46a55" stroke-width="1.5"/>
<text x="930.0" y="595.0" text-anchor="middle" font-size="15" font-weight="600" fill="#1f2933">指标沉淀</text>
<path d="M836 590.0 C 850.0 590.0, 850.0 590.0, 864 590.0" fill="none" stroke="#687383" stroke-width="2" marker-end="url(#arrow)"/>
<text x="1636" y="672" text-anchor="end" font-size="14" fill="#687383">长发小寨 AI 总控工作台 / SOP 泳道图</text>
</svg>