<svg xmlns="http://www.w3.org/2000/svg" width="1680" height="696" viewBox="0 0 1680 696">
<defs>
<marker id="arrow" markerWidth="10" markerHeight="10" refX="8" refY="3" orient="auto" markerUnits="strokeWidth">
<path d="M0,0 L0,6 L9,3 z" fill="#687383"/>
</marker>
</defs>
<rect width="1680" height="696" fill="#f6f4ef"/>
<rect x="20" y="20" width="1640" height="656" rx="20" fill="#fffdf8" stroke="#d7d1c6"/>
<text x="44" y="62" font-size="34" font-weight="800" fill="#0f5148">品牌社媒推广设计 SOP 泳道图</text>
<text x="44" y="92" font-size="16" fill="#687383">从传播目标到互动和搜索回流，确保社媒内容不是单条素材，而是可沉淀的内容资产</text>
<rect x="32" y="104" width="1616" height="108" fill="#fbfaf6"/>
<line x1="32" y1="104" x2="1648" y2="104" stroke="#d7d1c6" stroke-width="1"/>
<rect x="44" y="124" width="156" height="68" rx="10" fill="#f4e8c8" stroke="#c99a3e" stroke-width="1.5"/>
<text x="122.0" y="163.0" text-anchor="middle" font-size="18" font-weight="700" fill="#1f2933">品牌/业务</text>
<rect x="224" y="127" width="132" height="62" rx="10" fill="#fff7df" stroke="#c99a3e" stroke-width="1.5"/>
<text x="290.0" y="163.0" text-anchor="middle" font-size="15" font-weight="600" fill="#1f2933">传播目标</text>
<rect x="384" y="127" width="132" height="62" rx="10" fill="#fff7df" stroke="#c99a3e" stroke-width="1.5"/>
<text x="450.0" y="163.0" text-anchor="middle" font-size="15" font-weight="600" fill="#1f2933">人群场景</text>
<path d="M356 158.0 C 370.0 158.0, 370.0 158.0, 384 158.0" fill="none" stroke="#687383" stroke-width="2" marker-end="url(#arrow)"/>
<rect x="544" y="127" width="132" height="62" rx="10" fill="#fff7df" stroke="#c99a3e" stroke-width="1.5"/>
<text x="610.0" y="163.0" text-anchor="middle" font-size="15" font-weight="600" fill="#1f2933">主题确认</text>
<path d="M516 158.0 C 530.0 158.0, 530.0 158.0, 544 158.0" fill="none" stroke="#687383" stroke-width="2" marker-end="url(#arrow)"/>
<rect x="704" y="127" width="132" height="62" rx="10" fill="#fff7df" stroke="#c99a3e" stroke-width="1.5"/>
<text x="770.0" y="163.0" text-anchor="middle" font-size="15" font-weight="600" fill="#1f2933">发布确认</text>
<path d="M676 158.0 C 690.0 158.0, 690.0 158.0, 704 158.0" fill="none" stroke="#687383" stroke-width="2" marker-end="url(#arrow)"/>
<rect x="864" y="127" width="132" height="62" rx="10" fill="#fff7df" stroke="#c99a3e" stroke-width="1.5"/>
<text x="930.0" y="163.0" text-anchor="middle" font-size="15" font-weight="600" fill="#1f2933">反馈输入</text>
<path d="M836 158.0 C 850.0 158.0, 850.0 158.0, 864 158.0" fill="none" stroke="#687383" stroke-width="2" marker-end="url(#arrow)"/>
<rect x="32" y="212" width="1616" height="108" fill="#f1ede4"/>
<line x1="32" y1="212" x2="1648" y2="212" stroke="#d7d1c6" stroke-width="1"/>
<rect x="44" y="232" width="156" height="68" rx="10" fill="#dcefe8" stroke="#146c5c" stroke-width="1.5"/>
<text x="122.0" y="271.0" text-anchor="middle" font-size="18" font-weight="700" fill="#1f2933">内容团队</text>
<rect x="384" y="235" width="132" height="62" rx="10" fill="#eef7f2" stroke="#146c5c" stroke-width="1.5"/>
<text x="450.0" y="271.0" text-anchor="middle" font-size="15" font-weight="600" fill="#1f2933">栏目规划</text>
<rect x="544" y="235" width="132" height="62" rx="10" fill="#eef7f2" stroke="#146c5c" stroke-width="1.5"/>
<text x="610.0" y="271.0" text-anchor="middle" font-size="15" font-weight="600" fill="#1f2933">标题脚本</text>
<path d="M516 266.0 C 530.0 266.0, 530.0 266.0, 544 266.0" fill="none" stroke="#687383" stroke-width="2" marker-end="url(#arrow)"/>
<rect x="704" y="235" width="132" height="62" rx="10" fill="#eef7f2" stroke="#146c5c" stroke-width="1.5"/>
<text x="770.0" y="271.0" text-anchor="middle" font-size="15" font-weight="600" fill="#1f2933">发布执行</text>
<path d="M676 266.0 C 690.0 266.0, 690.0 266.0, 704 266.0" fill="none" stroke="#687383" stroke-width="2" marker-end="url(#arrow)"/>
<rect x="864" y="235" width="132" height="62" rx="10" fill="#eef7f2" stroke="#146c5c" stroke-width="1.5"/>
<text x="930.0" y="271.0" text-anchor="middle" font-size="15" font-weight="600" fill="#1f2933">评论复盘</text>
<path d="M836 266.0 C 850.0 266.0, 850.0 266.0, 864 266.0" fill="none" stroke="#687383" stroke-width="2" marker-end="url(#arrow)"/>
<rect x="32" y="320" width="1616" height="108" fill="#fbfaf6"/>
<line x1="32" y1="320" x2="1648" y2="320" stroke="#d7d1c6" stroke-width="1"/>
<rect x="44" y="340" width="156" height="68" rx="10" fill="#e4e0f0" stroke="#7566a5" stroke-width="1.5"/>
<text x="122.0" y="379.0" text-anchor="middle" font-size="18" font-weight="700" fill="#1f2933">Codex/AI</text>
<rect x="224" y="343" width="132" height="62" rx="10" fill="#f0edf8" stroke="#7566a5" stroke-width="1.5"/>
<text x="290.0" y="379.0" text-anchor="middle" font-size="15" font-weight="600" fill="#1f2933">需求拆解</text>
<rect x="384" y="343" width="132" height="62" rx="10" fill="#f0edf8" stroke="#7566a5" stroke-width="1.5"/>
<text x="450.0" y="379.0" text-anchor="middle" font-size="15" font-weight="600" fill="#1f2933">选题生成</text>
<path d="M356 374.0 C 370.0 374.0, 370.0 374.0, 384 374.0" fill="none" stroke="#687383" stroke-width="2" marker-end="url(#arrow)"/>
<rect x="544" y="343" width="132" height="62" rx="10" fill="#f0edf8" stroke="#7566a5" stroke-width="1.5"/>
<text x="610.0" y="379.0" text-anchor="middle" font-size="15" font-weight="600" fill="#1f2933">画面探索</text>
<path d="M516 374.0 C 530.0 374.0, 530.0 374.0, 544 374.0" fill="none" stroke="#687383" stroke-width="2" marker-end="url(#arrow)"/>
<rect x="704" y="343" width="132" height="62" rx="10" fill="#f0edf8" stroke="#7566a5" stroke-width="1.5"/>
<text x="770.0" y="379.0" text-anchor="middle" font-size="15" font-weight="600" fill="#1f2933">发布检查</text>
<path d="M676 374.0 C 690.0 374.0, 690.0 374.0, 704 374.0" fill="none" stroke="#687383" stroke-width="2" marker-end="url(#arrow)"/>
<rect x="864" y="343" width="132" height="62" rx="10" fill="#f0edf8" stroke="#7566a5" stroke-width="1.5"/>
<text x="930.0" y="379.0" text-anchor="middle" font-size="15" font-weight="600" fill="#1f2933">回流观察</text>
<path d="M836 374.0 C 850.0 374.0, 850.0 374.0, 864 374.0" fill="none" stroke="#687383" stroke-width="2" marker-end="url(#arrow)"/>
<rect x="32" y="428" width="1616" height="108" fill="#f1ede4"/>
<line x1="32" y1="428" x2="1648" y2="428" stroke="#d7d1c6" stroke-width="1"/>
<rect x="44" y="448" width="156" height="68" rx="10" fill="#dce9ef" stroke="#4f7f9f" stroke-width="1.5"/>
<text x="122.0" y="487.0" text-anchor="middle" font-size="18" font-weight="700" fill="#1f2933">社媒设计</text>
<rect x="384" y="451" width="132" height="62" rx="10" fill="#eef6fa" stroke="#4f7f9f" stroke-width="1.5"/>
<text x="450.0" y="487.0" text-anchor="middle" font-size="15" font-weight="600" fill="#1f2933">平台适配</text>
<rect x="544" y="451" width="132" height="62" rx="10" fill="#eef6fa" stroke="#4f7f9f" stroke-width="1.5"/>
<text x="610.0" y="487.0" text-anchor="middle" font-size="15" font-weight="600" fill="#1f2933">视觉生产</text>
<path d="M516 482.0 C 530.0 482.0, 530.0 482.0, 544 482.0" fill="none" stroke="#687383" stroke-width="2" marker-end="url(#arrow)"/>
<rect x="704" y="451" width="132" height="62" rx="10" fill="#eef6fa" stroke="#4f7f9f" stroke-width="1.5"/>
<text x="770.0" y="487.0" text-anchor="middle" font-size="15" font-weight="600" fill="#1f2933">版本交付</text>
<path d="M676 482.0 C 690.0 482.0, 690.0 482.0, 704 482.0" fill="none" stroke="#687383" stroke-width="2" marker-end="url(#arrow)"/>
<rect x="864" y="451" width="132" height="62" rx="10" fill="#eef6fa" stroke="#4f7f9f" stroke-width="1.5"/>
<text x="930.0" y="487.0" text-anchor="middle" font-size="15" font-weight="600" fill="#1f2933">模板沉淀</text>
<path d="M836 482.0 C 850.0 482.0, 850.0 482.0, 864 482.0" fill="none" stroke="#687383" stroke-width="2" marker-end="url(#arrow)"/>
<rect x="32" y="536" width="1616" height="108" fill="#fbfaf6"/>
<line x1="32" y1="536" x2="1648" y2="536" stroke="#d7d1c6" stroke-width="1"/>
<rect x="44" y="556" width="156" height="68" rx="10" fill="#f1d9cf" stroke="#b46a55" stroke-width="1.5"/>
<text x="122.0" y="595.0" text-anchor="middle" font-size="18" font-weight="700" fill="#1f2933">平台/数据</text>
<rect x="384" y="559" width="132" height="62" rx="10" fill="#fbefeb" stroke="#b46a55" stroke-width="1.5"/>
<text x="450.0" y="595.0" text-anchor="middle" font-size="15" font-weight="600" fill="#1f2933">平台规则</text>
<rect x="544" y="559" width="132" height="62" rx="10" fill="#fbefeb" stroke="#b46a55" stroke-width="1.5"/>
<text x="610.0" y="595.0" text-anchor="middle" font-size="15" font-weight="600" fill="#1f2933">上线发布</text>
<path d="M516 590.0 C 530.0 590.0, 530.0 590.0, 544 590.0" fill="none" stroke="#687383" stroke-width="2" marker-end="url(#arrow)"/>
<rect x="704" y="559" width="132" height="62" rx="10" fill="#fbefeb" stroke="#b46a55" stroke-width="1.5"/>
<text x="770.0" y="595.0" text-anchor="middle" font-size="15" font-weight="600" fill="#1f2933">互动搜索</text>
<path d="M676 590.0 C 690.0 590.0, 690.0 590.0, 704 590.0" fill="none" stroke="#687383" stroke-width="2" marker-end="url(#arrow)"/>
<rect x="864" y="559" width="132" height="62" rx="10" fill="#fbefeb" stroke="#b46a55" stroke-width="1.5"/>
<text x="930.0" y="595.0" text-anchor="middle" font-size="15" font-weight="600" fill="#1f2933">内容资产</text>
<path d="M836 590.0 C 850.0 590.0, 850.0 590.0, 864 590.0" fill="none" stroke="#687383" stroke-width="2" marker-end="url(#arrow)"/>
<text x="1636" y="672" text-anchor="end" font-size="14" fill="#687383">长发小寨 AI 总控工作台 / SOP 泳道图</text>
</svg>